<svg width="240" height="240" viewBox="0 0 240 240" fill="none" xmlns="http://www.w3.org/2000/svg">
<path d="M187.5 202.5L156.345 157.5H171.923L145.961 120H161.539L135.577 86.25H151.155L120 37.5L88.845 86.25H104.423L78.4613 120H94.0387L68.0775 157.5H83.655L52.5 202.5H187.5Z" fill="#7EA82D"/>
<path d="M133.332 18.12L129.17 11.88L123.751 15.495V7.5H116.251V15.495L110.832 11.88L106.67 18.12L113.24 22.5L106.67 26.88L110.832 33.12L116.251 29.505V37.5H123.751V29.505L129.17 33.12L133.332 26.88L126.762 22.5L133.332 18.12Z" fill="#FDB62F"/>
<path d="M131.25 202.5H108.75V228.75H131.25V202.5Z" fill="#80421C"/>
<path d="M150 225H90V232.5H150V225Z" fill="#80421C"/>
<path d="M127.5 142.5C131.642 142.5 135 139.142 135 135C135 130.858 131.642 127.5 127.5 127.5C123.358 127.5 120 130.858 120 135C120 139.142 123.358 142.5 127.5 142.5Z" fill="#DD4A43"/>
<path d="M97.5 187.5C101.642 187.5 105 184.142 105 180C105 175.858 101.642 172.5 97.5 172.5C93.3579 172.5 90 175.858 90 180C90 184.142 93.3579 187.5 97.5 187.5Z" fill="#DD4A43"/>
<path d="M127.5 71.25H120V78.75H127.5V71.25Z" fill="#FDB62F"/>
<path d="M112.5 105H105V112.5H112.5V105Z" fill="#FDB62F"/>
<path d="M150 176.25H142.5V183.75H150V176.25Z" fill="#FDB62F"/>
<path d="M108.75 150H101.25V157.5H108.75V150Z" fill="#FDB62F"/>
<path d="M131.25 202.5H108.75V210H131.25V202.5Z" fill="#70320F"/>
</svg>
