<svg width="74" height="74" viewBox="0 0 74 74" fill="none" xmlns="http://www.w3.org/2000/svg">
<path d="M68.2176 32.3748C65.9428 32.3741 63.7481 31.5352 62.0528 30.0184C60.3575 28.5016 59.2805 26.4134 59.0277 24.1527C57.4438 25.0913 55.6153 25.5348 53.7774 25.426C51.9394 25.3172 50.176 24.6612 48.7138 23.5423C47.2516 22.4234 46.1576 20.8927 45.5722 19.1471C44.9869 17.4014 44.937 15.5206 45.4291 13.7464C44.9358 13.8297 44.4366 13.8726 43.9364 13.8748C41.4831 13.8748 39.1303 12.9002 37.3956 11.1655C35.6609 9.43078 34.6863 7.07801 34.6863 4.62476C34.6882 4.2661 34.7106 3.90785 34.7534 3.55176C28.0256 4.00433 21.5905 6.47481 16.2882 10.6407C10.9859 14.8066 7.06281 20.4743 5.03103 26.9039C2.99925 33.3336 2.95319 40.2265 4.89888 46.6827C6.84456 53.139 10.6916 58.8586 15.9377 63.095C21.1839 67.3313 27.5854 69.8876 34.3066 70.43C41.0278 70.9724 47.7564 69.4758 53.614 66.1356C59.4716 62.7953 64.186 57.7667 67.1419 51.706C70.0977 45.6453 71.1576 38.8343 70.1832 32.162C69.5375 32.3027 68.8785 32.3741 68.2176 32.3748Z" fill="#A65C2E"/>
<path d="M70.1824 32.1619C68.9178 32.4381 67.6091 32.4454 66.3415 32.1832C65.0738 31.921 63.8755 31.3952 62.8241 30.64C61.7728 29.8848 60.8919 28.917 60.2388 27.7993C59.5856 26.6817 59.1747 25.4393 59.0327 24.1526C57.9385 24.7969 56.7229 25.2083 55.4622 25.3609C55.0348 35.3376 50.7708 44.7638 43.5602 51.6721C36.3496 58.5804 26.7496 62.4371 16.7637 62.4372C16.211 62.4372 15.6629 62.4187 15.1172 62.3956C20.2919 66.8611 26.7082 69.638 33.5058 70.3539C40.3034 71.0698 47.1573 69.6904 53.1488 66.4008C59.1403 63.1112 63.9829 58.0685 67.0274 51.9488C70.0719 45.8291 71.1728 38.925 70.1824 32.1619Z" fill="#964C1E"/>
<path d="M33.5312 37C36.0856 37 38.1562 34.9293 38.1562 32.375C38.1562 29.8207 36.0856 27.75 33.5312 27.75C30.9769 27.75 28.9062 29.8207 28.9062 32.375C28.9062 34.9293 30.9769 37 33.5312 37Z" fill="#663318"/>
<path d="M25.4375 60.125C27.9918 60.125 30.0625 58.0543 30.0625 55.5C30.0625 52.9457 27.9918 50.875 25.4375 50.875C22.8832 50.875 20.8125 52.9457 20.8125 55.5C20.8125 58.0543 22.8832 60.125 25.4375 60.125Z" fill="#663318"/>
<path d="M50.875 60.125C53.4293 60.125 55.5 58.0543 55.5 55.5C55.5 52.9457 53.4293 50.875 50.875 50.875C48.3207 50.875 46.25 52.9457 46.25 55.5C46.25 58.0543 48.3207 60.125 50.875 60.125Z" fill="#663318"/>
<path d="M15.0312 39.3125C16.3084 39.3125 17.3438 38.2772 17.3438 37C17.3438 35.7228 16.3084 34.6875 15.0312 34.6875C13.7541 34.6875 12.7188 35.7228 12.7188 37C12.7188 38.2772 13.7541 39.3125 15.0312 39.3125Z" fill="#854219"/>
<path d="M42.7812 50.875C44.0584 50.875 45.0938 49.8397 45.0938 48.5625C45.0938 47.2853 44.0584 46.25 42.7812 46.25C41.5041 46.25 40.4688 47.2853 40.4688 48.5625C40.4688 49.8397 41.5041 50.875 42.7812 50.875Z" fill="#854219"/>
<path d="M55.5 37C56.7772 37 57.8125 35.9647 57.8125 34.6875C57.8125 33.4103 56.7772 32.375 55.5 32.375C54.2228 32.375 53.1875 33.4103 53.1875 34.6875C53.1875 35.9647 54.2228 37 55.5 37Z" fill="#854219"/>
<path d="M21.4853 15.3954L20.1348 13.5188C21.2835 12.6927 22.4911 11.9519 23.748 11.3022L24.8095 13.3581C23.653 13.9548 22.5419 14.6358 21.4853 15.3954Z" fill="#C47747"/>
<path d="M11.5529 29.2424L9.33984 28.5694C10.8833 23.513 13.7839 18.9767 17.7261 15.4541L19.2686 17.1769C15.6418 20.4175 12.9731 24.5907 11.5529 29.2424Z" fill="#C47747"/>
</svg>
