<svg width="40" height="40" viewBox="0 0 40 40" fill="none" xmlns="http://www.w3.org/2000/svg">
<path d="M20 9.5C14.2016 9.5 9.5 14.2016 9.5 20C9.5 25.7984 14.2016 30.5 20 30.5C25.7984 30.5 30.5 25.7984 30.5 20C30.5 14.2016 25.7984 9.5 20 9.5ZM20.75 25.0625C20.75 25.1656 20.6656 25.25 20.5625 25.25H19.4375C19.3344 25.25 19.25 25.1656 19.25 25.0625V18.6875C19.25 18.5844 19.3344 18.5 19.4375 18.5H20.5625C20.6656 18.5 20.75 18.5844 20.75 18.6875V25.0625ZM20 17C19.7056 16.994 19.4253 16.8728 19.2192 16.6625C19.0132 16.4522 18.8977 16.1695 18.8977 15.875C18.8977 15.5805 19.0132 15.2978 19.2192 15.0875C19.4253 14.8772 19.7056 14.756 20 14.75C20.2944 14.756 20.5747 14.8772 20.7808 15.0875C20.9868 15.2978 21.1023 15.5805 21.1023 15.875C21.1023 16.1695 20.9868 16.4522 20.7808 16.6625C20.5747 16.8728 20.2944 16.994 20 17Z" fill="#517459"/>
</svg>
