<svg width="40" height="40" viewBox="0 0 40 40" fill="none" xmlns="http://www.w3.org/2000/svg">
<path d="M21.4543 23.5961C21.4191 23.5612 21.3715 23.5416 21.3219 23.5416C21.2723 23.5416 21.2247 23.5612 21.1895 23.5961L18.466 26.3196C17.2051 27.5805 15.077 27.7141 13.6848 26.3196C12.2902 24.925 12.4238 22.7992 13.6848 21.5383L16.4082 18.8149C16.4809 18.7422 16.4809 18.6227 16.4082 18.55L15.4754 17.6172C15.4402 17.5823 15.3926 17.5627 15.343 17.5627C15.2934 17.5627 15.2458 17.5823 15.2105 17.6172L12.4871 20.3407C10.5043 22.3235 10.5043 25.5321 12.4871 27.5125C14.4699 29.493 17.6785 29.4953 19.659 27.5125L22.3824 24.7891C22.4551 24.7164 22.4551 24.5969 22.3824 24.5242L21.4543 23.5961ZM27.5152 12.4867C25.5324 10.5039 22.3238 10.5039 20.3434 12.4867L17.6176 15.2102C17.5827 15.2454 17.5631 15.293 17.5631 15.3426C17.5631 15.3922 17.5827 15.4398 17.6176 15.475L18.548 16.4055C18.6207 16.4781 18.7402 16.4781 18.8129 16.4055L21.5363 13.6821C22.7973 12.4211 24.9254 12.2875 26.3176 13.6821C27.7121 15.0766 27.5785 17.2024 26.3176 18.4633L23.5941 21.1867C23.5592 21.222 23.5397 21.2696 23.5397 21.3192C23.5397 21.3688 23.5592 21.4163 23.5941 21.4516L24.527 22.3844C24.5996 22.4571 24.7191 22.4571 24.7918 22.3844L27.5152 19.661C29.4957 17.6782 29.4957 14.4696 27.5152 12.4867ZM22.3004 16.7266C22.2652 16.6917 22.2176 16.6721 22.168 16.6721C22.1184 16.6721 22.0708 16.6917 22.0355 16.7266L16.727 22.0328C16.6921 22.0681 16.6725 22.1157 16.6725 22.1653C16.6725 22.2149 16.6921 22.2624 16.727 22.2977L17.6551 23.2258C17.7277 23.2985 17.8473 23.2985 17.9199 23.2258L23.2262 17.9196C23.2988 17.8469 23.2988 17.7274 23.2262 17.6547L22.3004 16.7266Z" fill="#517459"/>
</svg>
