<svg width="180" height="180" viewBox="0 0 180 180" fill="none" xmlns="http://www.w3.org/2000/svg">
<path d="M167.918 76.4077C165.527 72.275 164.266 67.5862 164.262 62.812C164.261 58.0397 163.004 53.3517 160.618 49.219C158.231 45.0862 154.799 41.6545 150.666 39.2686C146.535 36.8809 143.103 33.4494 140.715 29.318C138.33 25.1872 134.901 21.7564 130.771 19.37C126.641 16.9837 121.956 15.7257 117.186 15.7224C112.414 15.7274 107.725 14.4761 103.59 12.0942C99.4578 9.70764 94.7697 8.45117 89.9975 8.45117C85.2254 8.45117 80.5373 9.70764 76.4047 12.0942C72.2726 14.4859 67.5835 15.747 62.8091 15.7505C58.0372 15.751 53.3494 17.0074 49.2167 19.3934C45.0841 21.7794 41.6521 25.2109 39.2657 29.3433C36.8779 33.4747 33.4465 36.9062 29.315 39.2939C25.1857 41.6777 21.7558 45.1054 19.3695 49.2333C16.9832 53.3612 15.7244 58.044 15.7194 62.812C15.7231 67.5836 14.4719 72.2723 12.0913 76.4077C9.70471 80.5402 8.44824 85.2283 8.44824 90.0005C8.44824 94.7727 9.70471 99.4607 12.0913 103.593C14.4817 107.726 15.7427 112.415 15.7475 117.189C15.7481 121.961 17.0048 126.649 19.3913 130.782C21.7778 134.915 25.2101 138.346 29.3432 140.732C33.4746 143.12 36.9061 146.552 39.2938 150.683C41.6797 154.816 45.1114 158.248 49.2442 160.635C53.3769 163.021 58.0649 164.278 62.8372 164.279C67.6116 164.282 72.3008 165.543 76.4329 167.935C80.5654 170.321 85.2535 171.578 90.0257 171.578C94.7979 171.578 99.4859 170.321 103.618 167.935C107.751 165.543 112.44 164.282 117.214 164.279C121.986 164.278 126.674 163.021 130.807 160.635C134.94 158.248 138.372 154.816 140.758 150.683C143.145 146.552 146.577 143.12 150.708 140.732C154.841 138.346 158.273 134.915 160.66 130.782C163.047 126.649 164.303 121.961 164.304 117.189C164.309 112.415 165.57 107.726 167.96 103.593C170.34 99.457 171.589 94.767 171.582 89.9948C171.575 85.2226 170.311 80.5365 167.918 76.4077ZM89.9975 126.563C82.7662 126.563 75.6972 124.419 69.6845 120.401C63.6718 116.384 58.9855 110.673 56.2182 103.992C53.4509 97.3114 52.7268 89.9599 54.1376 82.8675C55.5484 75.775 59.0306 69.2602 64.144 64.1469C69.2573 59.0335 75.7721 55.5513 82.8646 54.1405C89.957 52.7297 97.3085 53.4538 103.989 56.2211C110.67 58.9885 116.381 63.6748 120.398 69.6874C124.416 75.7001 126.56 82.7691 126.56 90.0005C126.56 99.6974 122.708 108.997 115.851 115.854C108.994 122.711 99.6945 126.563 89.9975 126.563Z" fill="#7EA82D"/>
<path d="M167.915 76.4078C165.524 72.2752 164.263 67.5863 164.258 62.8121C164.258 58.0399 163.001 53.3518 160.615 49.2191C158.228 45.0864 154.796 41.6546 150.663 39.2687C147.887 37.6467 145.42 35.5451 143.378 33.0615C140.51 50.0269 134.398 66.2805 125.378 80.9331C127.034 87.3276 126.923 94.0517 125.056 100.388C123.19 106.724 119.638 112.435 114.779 116.91C109.921 121.385 103.939 124.458 97.4711 125.799C91.0033 127.141 84.2927 126.701 78.0553 124.527C63.1301 132.441 47.1541 138.189 30.6084 141.599C34.1627 143.909 37.1265 147.019 39.2625 150.68C41.6484 154.813 45.0801 158.246 49.2128 160.632C53.3455 163.019 58.0336 164.275 62.8059 164.276C67.5802 164.279 72.2694 165.54 76.4015 167.932C80.5341 170.319 85.2221 171.575 89.9943 171.575C94.7665 171.575 99.4546 170.319 103.587 167.932C107.719 165.54 112.408 164.279 117.183 164.276C121.955 164.275 126.643 163.019 130.776 160.632C134.909 158.246 138.34 154.813 140.726 150.68C143.114 146.549 146.545 143.117 150.677 140.73C154.81 138.344 158.242 134.912 160.629 130.779C163.015 126.647 164.272 121.959 164.272 117.186C164.277 112.412 165.538 107.723 167.929 103.591C170.313 99.4571 171.566 94.7689 171.564 89.9973C171.561 85.2257 170.303 80.5388 167.915 76.4078Z" fill="#729C22"/>
<path d="M70.3125 56.25L59.0625 90L70.3125 87.1875L78.75 98.4375L90 56.25H70.3125Z" fill="#B83630"/>
<path d="M109.688 56.25L120.938 90L109.688 87.1875L101.25 98.4375L90 56.25H109.688Z" fill="#B83630"/>
<path d="M59.5464 21.0495L55.637 32.7749C55.3719 33.5706 55.2881 34.4156 55.3917 35.2479C55.4954 36.0803 55.7838 36.8789 56.236 37.5853C56.6882 38.2918 57.2926 38.8881 58.0051 39.3308C58.7175 39.7734 59.52 40.0511 60.3536 40.1436L78.7502 42.1883L87.1877 30.9383L68.0036 18.147C67.2839 17.6672 66.4631 17.3597 65.6052 17.2487C64.7473 17.1376 63.8754 17.226 63.0572 17.5068C62.239 17.7876 61.4966 18.2533 60.8877 18.8678C60.2788 19.4822 59.8198 20.2288 59.5464 21.0495Z" fill="#D13E37"/>
<path d="M78.7461 42.1875L59.7533 46.4062C58.9676 46.5809 58.2285 46.9221 57.586 47.4068C56.9434 47.8916 56.4124 48.5086 56.0287 49.2162C55.6451 49.9237 55.4177 50.7054 55.3621 51.5084C55.3064 52.3113 55.4238 53.1169 55.7061 53.8706L59.3821 63.6722C59.6796 64.4666 60.1529 65.1835 60.7666 65.7691C61.3803 66.3548 62.1186 66.794 62.9261 67.054C63.7336 67.3139 64.5894 67.3879 65.4295 67.2703C66.2696 67.1527 67.0723 66.8467 67.7774 66.375L87.1836 53.4375L78.7461 42.1875Z" fill="#D13E37"/>
<path d="M120.454 21.0495L124.363 32.7749C124.628 33.5706 124.712 34.4156 124.608 35.2479C124.505 36.0803 124.216 36.8789 123.764 37.5853C123.312 38.2918 122.708 38.8881 121.995 39.3308C121.283 39.7734 120.48 40.0511 119.647 40.1436L101.25 42.1883L92.8125 30.9383L111.997 18.147C112.716 17.6672 113.537 17.3597 114.395 17.2487C115.253 17.1376 116.125 17.226 116.943 17.5068C117.761 17.7876 118.504 18.2533 119.112 18.8678C119.721 19.4822 120.18 20.2288 120.454 21.0495Z" fill="#D13E37"/>
<path d="M101.25 42.1875L120.243 46.4063C121.029 46.5809 121.768 46.9221 122.41 47.4068C123.053 47.8916 123.584 48.5086 123.967 49.2162C124.351 49.9237 124.578 50.7054 124.634 51.5084C124.69 52.3113 124.572 53.1169 124.29 53.8706L120.614 63.675C120.316 64.4692 119.843 65.1858 119.229 65.7711C118.615 66.3564 117.877 66.7954 117.069 67.0551C116.262 67.3148 115.406 67.3885 114.566 67.2707C113.726 67.1529 112.924 66.8467 112.219 66.375L92.8125 53.4375L101.25 42.1875Z" fill="#D13E37"/>
<path d="M78.7457 36.4795L69.5404 34.3476C68.8175 34.1663 68.1961 33.7055 67.8127 33.0663C67.4294 32.4272 67.3154 31.662 67.4957 30.9389C67.6771 30.216 68.1379 29.5946 68.777 29.2112C69.4162 28.8278 70.1813 28.7138 70.9045 28.8942L80.1098 31.0232C80.8333 31.2045 81.4552 31.6658 81.8387 32.3056C82.2221 32.9454 82.3357 33.7113 82.1545 34.4348C81.9732 35.1577 81.5123 35.7791 80.8732 36.1625C80.2341 36.5459 79.4689 36.6599 78.7457 36.4795Z" fill="#B3352F"/>
<path d="M67.4957 53.4377C67.3154 52.7146 67.4294 51.9494 67.8127 51.3103C68.1961 50.6711 68.8175 50.2103 69.5404 50.029L78.7457 47.8971C79.4689 47.7167 80.2341 47.8307 80.8732 48.2141C81.5123 48.5975 81.9732 49.2189 82.1545 49.9418C82.3357 50.6653 82.2221 51.4312 81.8387 52.071C81.4552 52.7108 80.8333 53.1721 80.1098 53.3534L70.9045 55.4824C70.1813 55.6628 69.4162 55.5488 68.777 55.1654C68.1379 54.782 67.6771 54.1606 67.4957 53.4377Z" fill="#B3352F"/>
<path d="M109.093 28.8929L100.572 31.0252C99.0653 31.4023 98.1493 32.9289 98.5262 34.435C98.9031 35.9411 100.43 36.8563 101.937 36.4792L110.458 34.3469C111.965 33.9698 112.88 32.4432 112.504 30.9371C112.127 29.431 110.6 28.5158 109.093 28.8929Z" fill="#B3352F"/>
<path d="M109.09 55.4824L99.8848 53.3534C99.1613 53.1721 98.5394 52.7108 98.156 52.071C97.7725 51.4312 97.6589 50.6653 97.8402 49.9418C98.0215 49.2189 98.4823 48.5975 99.1214 48.2141C99.7606 47.8307 100.526 47.7167 101.249 47.8971L110.454 50.029C111.177 50.2103 111.799 50.6711 112.182 51.3103C112.565 51.9494 112.679 52.7146 112.499 53.4377C112.318 54.1606 111.857 54.782 111.218 55.1654C110.578 55.5488 109.813 55.6628 109.09 55.4824Z" fill="#B3352F"/>
<path d="M151.875 101.25H146.25C146.25 105.726 148.028 110.018 151.193 113.182C154.357 116.347 158.649 118.125 163.125 118.125H168.75C168.75 113.649 166.972 109.357 163.807 106.193C160.643 103.028 156.351 101.25 151.875 101.25Z" fill="#97C936"/>
<path d="M78.75 137.812V143.438C83.2255 143.438 87.5178 141.66 90.6824 138.495C93.8471 135.33 95.625 131.038 95.625 126.562V120.938C91.1495 120.938 86.8572 122.715 83.6926 125.88C80.5279 129.045 78.75 133.337 78.75 137.812Z" fill="#97C936"/>
<path d="M19.6875 42.1875H14.0625C14.0625 46.663 15.8404 50.9553 19.0051 54.1199C22.1698 57.2846 26.462 59.0625 30.9375 59.0625H36.5625C36.5625 54.587 34.7846 50.2947 31.6199 47.1301C28.4552 43.9654 24.163 42.1875 19.6875 42.1875Z" fill="#97C936"/>
<path d="M28.125 101.25C32.7849 101.25 36.5625 97.4724 36.5625 92.8125C36.5625 88.1526 32.7849 84.375 28.125 84.375C23.4651 84.375 19.6875 88.1526 19.6875 92.8125C19.6875 97.4724 23.4651 101.25 28.125 101.25Z" fill="#DD4A43"/>
<path d="M146.25 73.125C150.91 73.125 154.688 69.3474 154.688 64.6875C154.688 60.0276 150.91 56.25 146.25 56.25C141.59 56.25 137.812 60.0276 137.812 64.6875C137.812 69.3474 141.59 73.125 146.25 73.125Z" fill="#DD4A43"/>
<path d="M120.938 146.25C125.597 146.25 129.375 142.472 129.375 137.812C129.375 133.153 125.597 129.375 120.938 129.375C116.278 129.375 112.5 133.153 112.5 137.812C112.5 142.472 116.278 146.25 120.938 146.25Z" fill="#DD4A43"/>
<path d="M53.4375 140.625C58.0974 140.625 61.875 136.847 61.875 132.188C61.875 127.528 58.0974 123.75 53.4375 123.75C48.7776 123.75 45 127.528 45 132.188C45 136.847 48.7776 140.625 53.4375 140.625Z" fill="#DD4A43"/>
<path d="M95.625 25.3125H84.375C81.2684 25.3125 78.75 27.8309 78.75 30.9375V53.4375C78.75 56.5441 81.2684 59.0625 84.375 59.0625H95.625C98.7316 59.0625 101.25 56.5441 101.25 53.4375V30.9375C101.25 27.8309 98.7316 25.3125 95.625 25.3125Z" fill="#DD4A43"/>
<path d="M78.7475 33.7504L78.7456 33.7525C77.7227 34.9215 77.8412 36.6983 79.0102 37.7212L97.2766 53.7044C98.4456 54.7272 100.222 54.6088 101.245 53.4398L101.247 53.4377C102.27 52.2687 102.152 50.4919 100.983 49.469L82.7161 33.4858C81.5471 32.463 79.7703 32.5814 78.7475 33.7504Z" fill="#D13E37"/>
</svg>
